<svg width="224" height="82" viewBox="0 0 224 82" fill="none" xmlns="http://www.w3.org/2000/svg">
<path fill-rule="evenodd" clip-rule="evenodd" d="M51.2049 21.2075C50.7519 19.5668 50.0273 18.2601 49.0931 17.053C47.9382 15.5529 46.4889 14.4982 44.8074 13.754C43.1996 13.045 41.5124 12.7696 39.78 12.9161C37.64 13.0977 35.6925 13.8653 33.9771 15.2248C31.6162 17.1057 30.1895 19.555 29.7706 22.6138C29.7423 22.8306 29.6574 22.8892 29.4762 22.8892H22.3428C22.079 22.8892 22.0561 22.7622 22.0216 22.5715C22.0176 22.5493 22.0135 22.5262 22.0087 22.5024C21.6351 20.5688 20.9161 18.7757 19.7045 17.2522C18.0627 15.1838 16.0076 13.7657 13.4486 13.1739C11.0142 12.6114 8.69298 12.8985 6.44538 14.006C3.59767 15.4123 1.72939 17.6858 0.699005 20.7328C0.659375 20.8559 0.60276 20.9379 0.478208 21.0141C0.240427 20.4516 0.01963 19.889 0.01963 19.2679C0.01963 18.5623 0.0147225 17.8568 0.00981499 17.1512C-0.00109055 15.5832 -0.0119961 14.0153 0.0309529 12.4473C0.0875675 10.4785 1.27081 9.17763 3.07682 8.81434C4.13411 8.59966 5.19141 8.39084 6.2482 8.18212L6.2483 8.1821L6.24834 8.18209C7.55686 7.92365 8.86461 7.66536 10.1706 7.39631C10.9293 7.2381 11.5407 6.76933 12.0955 6.23024C14.8979 3.49379 18.1589 1.68317 21.9691 0.921417C23.6336 0.587418 25.298 0.423348 26.9738 0.534681C30.9538 0.804224 34.5941 2.11678 37.8099 4.57782C38.3736 5.0093 38.9012 5.49841 39.4278 5.98655L39.4278 5.98659C39.6521 6.1945 39.8761 6.40223 40.1027 6.60526C40.9367 7.35457 41.9894 7.52813 43.0359 7.70066L43.0359 7.70066C43.2824 7.7413 43.5285 7.78188 43.7714 7.82992C44.2941 7.93255 44.8182 8.02795 45.3423 8.12333L45.3424 8.12334L45.3424 8.12335C46.5836 8.34925 47.8241 8.57501 49.0422 8.89637C50.8482 9.371 51.7314 10.7539 51.771 12.6641C51.7941 13.8126 51.7903 14.961 51.7864 16.1095C51.7837 16.9299 51.7809 17.7502 51.788 18.5706C51.7993 19.4378 51.6521 20.2523 51.2105 21.2016L51.2049 21.2075ZM48.3931 24.109C48.4335 28.3989 45.0166 31.7962 40.78 31.7213C36.3818 31.6407 33.2477 28.5659 33.1958 24.0745C33.1438 20.1359 36.2375 16.1628 41.5303 16.5486C44.9877 16.7962 48.4912 19.8538 48.3931 24.109ZM18.8347 24.1204C18.9096 20.1818 15.884 16.3989 11.1986 16.5546L11.1928 16.5489C6.98575 16.3124 3.83334 20.1184 3.64892 23.5495C3.38958 28.3415 7.08373 31.7784 11.1755 31.738C15.3941 31.6977 18.7482 28.8201 18.8347 24.1204Z" fill="#0033FF"/>
<path fill-rule="evenodd" clip-rule="evenodd" d="M155.836 3.69995C153.113 3.69995 150.734 4.28848 148.698 5.46554L148.701 5.4561C146.665 6.63316 145.1 8.28544 144.002 10.413C142.904 12.5405 142.356 15.0331 142.356 17.8089C142.356 20.5848 142.91 23.0427 144.021 25.1828C145.132 27.323 146.677 28.9815 148.66 30.1586C150.643 31.3357 152.915 31.9242 155.48 31.9242C157.491 31.9242 159.228 31.515 160.695 30.6968C162.161 29.8785 163.291 28.8871 164.084 27.7227V31.6881H168.009V16.5028H155.955V20.3487H163.647V21.0222C163.543 23.1875 162.741 24.8807 161.249 26.0955C159.757 27.3135 157.897 27.9209 155.678 27.9209C153.935 27.9209 152.408 27.4929 151.099 26.6337C149.79 25.7745 148.786 24.5849 148.084 23.0648C147.382 21.5447 147.033 19.7948 147.033 17.8121C147.033 15.8293 147.388 14.0795 148.103 12.5594C148.817 11.0393 149.827 9.84961 151.137 8.99042C152.446 8.13123 153.972 7.70321 155.716 7.70321C157.62 7.70321 159.225 8.20677 160.534 9.21073C161.844 10.2147 162.722 11.6026 163.172 13.3745H167.691C167.213 10.4161 165.919 8.06199 163.804 6.31844C161.689 4.57173 159.033 3.69995 155.836 3.69995ZM75.2416 3.93913H75.0339V3.93599C73.4634 3.93599 72.0598 4.91162 71.509 6.38137L62.0359 31.6913H66.7536L69.3311 24.8335H80.7115L83.33 31.6913H88.205L78.7696 6.38767C78.2189 4.91477 76.8121 3.93913 75.2416 3.93913ZM75.0024 8.85194L79.4431 20.9435H70.6026L75.0024 8.85194ZM102.689 31.6944H106.931L106.937 31.6913V11.3917H102.654V21.4628C102.654 23.5494 102.191 25.1954 101.266 26.3977C100.341 27.5999 99.0598 28.201 97.4201 28.201C95.8623 28.201 94.6852 27.6849 93.8921 26.6557C93.099 25.6266 92.7025 24.1191 92.7025 22.1363V11.3917H88.4191V22.5738C88.4191 25.8532 89.1587 28.2294 90.6379 29.7117C92.1171 31.194 94.0463 31.9336 96.4256 31.9336C99.0693 31.9336 101.156 30.9926 102.689 29.1169V31.6944ZM171.09 31.6944V16.9057C171.09 15.0299 171.534 13.642 172.418 12.7419C173.303 11.8418 174.713 11.3949 176.642 11.3949H180.765V15.1621H177.514C176.746 15.1621 176.204 15.3257 175.89 15.6562C175.572 15.9867 175.414 16.55 175.414 17.34V31.6944H171.093H171.09ZM109.93 5.72671V11.3948H109.927V26.1836C109.927 28.0625 110.371 29.4473 111.255 30.3474C112.143 31.2443 113.55 31.6944 115.479 31.6944H119.602V27.9272H116.351C115.586 27.9272 115.044 27.7635 114.727 27.4331C114.409 27.1026 114.251 26.5424 114.251 25.7493V15.1621H119.126V11.3948H114.251V5.72671H109.93ZM121.348 26.9957C120.489 25.422 120.061 23.6061 120.061 21.5447C120.061 19.4832 120.489 17.7051 121.348 16.1315C122.208 14.5579 123.422 13.3367 124.996 12.465C126.57 11.5932 128.373 11.1557 130.409 11.1557C132.445 11.1557 134.249 11.5932 135.822 12.465C137.396 13.3367 138.611 14.561 139.47 16.1315C140.329 17.7051 140.757 19.5084 140.757 21.5447C140.757 23.5809 140.329 25.4252 139.47 26.9957C138.611 28.5693 137.396 29.7841 135.822 30.6433C134.249 31.5025 132.445 31.9336 130.409 31.9336C128.373 31.9336 126.57 31.5056 124.996 30.6433C123.422 29.7841 122.208 28.5693 121.348 26.9957ZM136.395 21.5447C136.395 19.5619 135.848 17.9443 134.749 16.6885C133.651 15.4328 132.206 14.8065 130.409 14.8065C128.612 14.8065 127.171 15.4328 126.088 16.6885C125.005 17.9443 124.464 19.5619 124.464 21.5447C124.464 23.5274 125.005 25.1451 126.088 26.4008C127.171 27.6566 128.612 28.2829 130.409 28.2829C132.206 28.2829 133.654 27.6566 134.749 26.4008C135.848 25.1451 136.395 23.5274 136.395 21.5447ZM201.373 31.6944H201.37V27.9775H200.539C199.642 27.9775 199.192 27.4992 199.192 26.5487V18.539C199.192 16.1597 198.452 14.3344 196.973 13.066C195.494 11.7977 193.391 11.162 190.669 11.162C188.104 11.162 186.03 11.7222 184.444 12.8457C182.858 13.9661 181.958 15.546 181.747 17.5823H185.948C186.109 16.6822 186.59 15.9615 187.396 15.4201C188.202 14.8788 189.225 14.6082 190.468 14.6082C191.868 14.6082 192.967 14.9323 193.76 15.5807C194.553 16.2258 194.949 17.1196 194.949 18.2558V19.4863H189.835C187.006 19.4863 184.85 20.0466 183.371 21.1701C181.891 22.2937 181.152 23.8987 181.152 25.9885C181.152 27.8391 181.838 29.2931 183.213 30.3505C184.589 31.408 186.414 31.9367 188.686 31.9367C191.62 31.9367 193.854 30.7723 195.387 28.4465C195.387 29.5008 195.676 30.3096 196.259 30.8635C196.841 31.4174 197.791 31.6944 199.113 31.6944H201.37V31.7038L201.373 31.6944ZM189.637 22.6556C188.315 22.6556 187.298 22.9137 186.584 23.4298C185.87 23.946 185.514 24.7044 185.514 25.7084C185.514 26.5802 185.851 27.282 186.524 27.8107C187.198 28.3395 188.117 28.6038 189.281 28.6038C191.053 28.6038 192.435 28.1286 193.423 27.175C194.414 26.2245 194.924 24.9562 194.949 23.37V22.6556H189.637ZM223.372 21.5446C223.372 19.4014 222.959 17.5508 222.141 15.9929C221.323 14.4351 220.187 13.236 218.733 12.4051C217.279 11.5711 215.626 11.1557 213.776 11.1557C211 11.1557 208.806 12.2383 207.195 14.4068V3.93911H202.912V31.6944H207.154V28.7612C207.843 29.74 208.74 30.5111 209.851 31.0807C210.962 31.6504 212.268 31.9336 213.776 31.9336C215.626 31.9336 217.279 31.4961 218.733 30.6244C220.184 29.7526 221.323 28.5315 222.141 26.9579C222.963 25.3842 223.372 23.6879 223.372 21.5446ZM217.364 16.6885C218.462 17.9442 219.01 19.5619 219.01 21.5446V21.5478C219.01 23.5557 218.462 25.1891 217.364 26.4449C216.265 27.7006 214.833 28.3269 213.061 28.3269C211.29 28.3269 209.861 27.6912 208.778 26.4228C207.695 25.1545 207.154 23.4896 207.154 21.5069C207.154 19.5241 207.695 17.9128 208.778 16.6696C209.864 15.4265 211.29 14.8065 213.061 14.8065C214.833 14.8065 216.265 15.4327 217.364 16.6885Z" fill="#0033FF"/>
</svg>
